<svg width="417" height="418" viewBox="0 0 417 418" fill="none" xmlns="http://www.w3.org/2000/svg">
<path d="M208.807 409.711C319.612 409.711 409.437 319.886 409.437 209.081C409.437 98.2759 319.612 8.45074 208.807 8.45074C98.0021 8.45074 8.17694 98.2759 8.17694 209.081C8.17694 319.886 98.0021 409.711 208.807 409.711Z" fill="#1D1D1D" stroke="white" stroke-width="15"/>
<mask id="mask0" mask-type="alpha" maskUnits="userSpaceOnUse" x="15" y="15" width="387" height="388">
<path d="M208.807 402.211C315.47 402.211 401.937 315.743 401.937 209.081C401.937 102.418 315.47 15.9507 208.807 15.9507C102.144 15.9507 15.6769 102.418 15.6769 209.081C15.6769 315.743 102.144 402.211 208.807 402.211Z" fill="#262626"/>
</mask>
<g mask="url(#mask0)">
<path d="M287.951 496.763C281.15 465.481 241.652 394.671 226.67 364.729C211.699 334.78 196.698 292.574 203.528 265.343C204.767 260.39 190.555 222.647 194.64 219.978C226.417 199.252 234.784 222.239 247.508 212.947C254.056 208.141 262.951 216.9 265.213 208.945C273.361 180.374 253.863 130.56 232.096 108.789C224.979 101.694 214.082 97.2353 201.776 94.8679C197.042 88.4 189.411 82.1813 178.601 76.446C166.564 70.0385 140.386 61.577 126.809 59.3229C117.4 57.7748 115.274 60.4065 111.256 61.0635C115.002 61.3958 132.775 70.1782 136.233 70.6879C132.775 73.0251 122.614 70.5822 116.131 73.4895C112.865 74.9696 110.422 80.5766 110.445 83.231C128.984 81.3582 157.921 83.1706 175.01 90.7825C161.41 92.3306 140.726 94.0561 131.831 98.7305C105.974 112.353 94.5525 144.172 101.36 182.299C108.172 220.34 138.129 359.194 147.659 405.556C157.192 451.862 127.239 481.785 108.183 489.959L128.602 491.33L121.802 506.308C146.284 509.023 173.511 500.875 173.511 500.875C168.082 515.846 131.313 521.309 131.313 521.309C131.313 521.309 149.025 526.739 177.597 515.846C206.209 504.96 223.899 498.145 223.899 498.145L237.506 533.535L263.386 507.683L274.279 534.91C274.331 534.906 294.758 528.083 287.951 496.763V496.763Z" fill="#D5D7D8"/>
<path d="M296.174 490.416C289.397 459.119 249.899 388.308 234.901 358.344C219.911 328.38 204.941 286.182 211.756 258.962C213.021 254.02 213.043 233.786 217.151 231.101C248.909 210.357 246.648 230.406 259.391 221.114C265.961 216.315 271.22 210.519 273.505 202.568C281.675 173.978 262.155 124.183 240.38 102.401C233.285 95.3059 222.377 90.8391 210.087 88.4831C205.36 81.9963 197.736 75.7927 186.942 70.0498C166.586 59.2436 141.353 54.9241 117.974 59.1643C121.712 59.5041 130.267 67.2369 133.711 67.7466C128.497 71.2807 114.632 70.8238 114.723 78.6812C133.284 76.8235 153.624 79.7573 170.732 87.3541C157.132 88.9022 144.472 92.2626 135.576 96.9559C109.697 110.56 102.893 137.779 109.697 175.922C116.52 214.046 146.481 352.903 155.973 399.167C165.514 445.458 135.576 475.392 116.52 483.571L136.939 484.926L130.139 499.927C154.621 502.65 181.848 494.494 181.848 494.494C176.419 509.499 139.65 514.906 139.65 514.906C139.65 514.906 157.343 520.339 185.933 509.45C214.557 498.564 232.258 491.749 232.258 491.749L245.866 527.139L271.741 501.264L282.657 528.506C282.597 528.533 303.001 521.721 296.174 490.416V490.416Z" fill="white"/>
<path d="M139.669 177.836C139.669 169.934 146.061 163.538 153.975 163.538C161.867 163.538 168.267 169.934 168.267 177.836C168.267 185.743 161.867 192.131 153.975 192.131C146.061 192.135 139.669 185.743 139.669 177.836Z" fill="#2D4F8E"/>
<path d="M156.607 173.071C156.607 171.014 158.272 169.36 160.307 169.36C162.358 169.36 164.023 171.014 164.023 173.071C164.023 175.122 162.358 176.787 160.307 176.787C158.276 176.79 156.607 175.122 156.607 173.071Z" fill="white"/>
<path d="M237.257 169.356C237.257 162.586 242.774 157.085 249.536 157.085C256.336 157.085 261.83 162.586 261.83 169.356C261.83 176.156 256.336 181.657 249.536 181.657C242.774 181.657 237.257 176.156 237.257 169.356Z" fill="#2D4F8E"/>
<path d="M251.824 165.271C251.824 163.522 253.255 162.088 254.988 162.088C256.797 162.088 258.183 163.522 258.183 165.271C258.183 167.041 256.797 168.45 254.988 168.45C253.255 168.45 251.824 167.041 251.824 165.271Z" fill="white"/>
<path d="M158.038 136.405C158.038 136.405 147.262 131.53 136.784 138.115C126.326 144.693 126.711 151.417 126.711 151.417C126.711 151.417 121.149 139.022 135.973 132.946C150.811 126.871 158.038 136.405 158.038 136.405V136.405Z" fill="url(#paint0_linear)"/>
<path d="M256.933 135.423C256.933 135.423 249.189 130.998 243.178 131.074C230.827 131.236 227.463 136.692 227.463 136.692C227.463 136.692 229.536 123.684 245.33 126.293C253.893 127.717 256.933 135.423 256.933 135.423Z" fill="url(#paint1_linear)"/>
<path d="M197.736 232.978C199.167 224.327 221.52 207.963 237.348 206.974C253.21 205.973 258.152 206.2 271.367 203.036C284.62 199.872 318.697 191.376 328.128 187.019C337.583 182.654 377.606 189.179 349.39 204.909C337.187 211.739 304.296 224.282 280.777 231.29C257.295 238.316 243.057 224.584 235.241 236.126C229.026 245.309 233.98 257.882 262.045 260.491C299.942 264.003 336.277 243.421 340.275 254.356C344.292 265.287 307.709 278.928 285.432 279.363C263.182 279.782 218.333 264.652 211.597 259.967C204.854 255.292 195.871 244.373 197.736 232.978V232.978Z" fill="#FDD20A"/>
<path d="M214.89 347.372C214.89 347.372 161.644 318.974 160.776 330.494C159.877 342.033 160.776 389.052 166.979 392.609C173.194 396.151 217.559 369.547 217.559 369.547L214.89 347.372V347.372Z" fill="#65BC46"/>
<path d="M235.29 345.582C235.29 345.582 271.67 318.076 279.67 319.85C287.641 321.659 289.419 378.412 282.317 381.127C275.215 383.732 233.58 366.73 233.58 366.73L235.29 345.582Z" fill="#65BC46"/>
<path d="M201.999 350.381C201.999 369.003 199.322 376.996 207.323 378.771C215.286 380.557 230.37 378.771 235.709 375.229C241.033 371.688 236.585 347.745 234.833 343.267C233.032 338.835 201.999 342.391 201.999 350.381Z" fill="#43A244"/>
<path d="M205.386 346.239C205.386 364.865 202.717 372.858 210.706 374.629C218.658 376.437 233.753 374.629 239.096 371.087C244.42 367.534 239.968 343.603 238.205 339.122C236.419 334.693 205.386 338.265 205.386 346.239V346.239Z" fill="#65BC46"/>
</g>
<defs>
<linearGradient id="paint0_linear" x1="125.689" y1="141.168" x2="158.041" y2="141.168" gradientUnits="userSpaceOnUse">
<stop offset="0.0056" stop-color="#6176B9"/>
<stop offset="0.691" stop-color="#394A9F"/>
</linearGradient>
<linearGradient id="paint1_linear" x1="227.464" y1="131.319" x2="256.933" y2="131.319" gradientUnits="userSpaceOnUse">
<stop offset="0.0056" stop-color="#6176B9"/>
<stop offset="0.691" stop-color="#394A9F"/>
</linearGradient>
</defs>
</svg>
